<svg width="154" height="83" viewBox="0 0 154 83" fill="none" xmlns="http://www.w3.org/2000/svg">
<path d="M7.36 43.56C6.29333 43.56 5.49333 43.2667 4.96 42.68C4.42667 42.0933 4.16 41.4933 4.16 40.88C4.16 40.16 4.29333 39.6133 4.56 39.24C4.82667 38.8667 5.34667 38.5867 6.12 38.4C7.13333 38.1867 8.18667 37.92 9.28 37.6C10.4 37.28 11.4667 36.9467 12.48 36.6C13.52 36.2267 14.4267 35.8533 15.2 35.48C15.9733 35.08 16.5333 34.7067 16.88 34.36C16.4533 34.12 15.7733 33.84 14.84 33.52C13.9067 33.1733 12.8667 32.7733 11.72 32.32C10.6 31.84 9.52 31.28 8.48 30.64C7.44 30 6.58667 29.2533 5.92 28.4C5.25333 27.5467 4.92 26.5733 4.92 25.48C4.92 23.96 5.30667 22.5333 6.08 21.2C6.85333 19.8667 7.88 18.6267 9.16 17.48C10.44 16.3333 11.8267 15.28 13.32 14.32C14.84 13.36 16.3467 12.4933 17.84 11.72C19.36 10.92 20.72 10.2133 21.92 9.6C22.3733 9.33333 22.8 9.16 23.2 9.08C23.6267 8.97333 24.0133 8.92 24.36 8.92C25.56 8.92 26.3867 9.21333 26.84 9.8C27.2933 10.3867 27.52 10.9867 27.52 11.6C27.52 12.0267 27.32 12.5333 26.92 13.12C26.52 13.68 25.88 14.2 25 14.68C24.1467 15.16 23.0133 15.5067 21.6 15.72C21.36 15.7467 21.1467 15.7733 20.96 15.8C19.8933 16.3333 18.7467 16.9733 17.52 17.72C16.2933 18.4667 15.1333 19.2533 14.04 20.08C12.9733 20.88 12.0933 21.68 11.4 22.48C10.7067 23.28 10.36 24 10.36 24.64C10.36 25.36 10.6533 26.0133 11.24 26.6C11.8267 27.16 12.5733 27.68 13.48 28.16C14.4133 28.6133 15.3867 29.0533 16.4 29.48C17.44 29.9067 18.4133 30.3467 19.32 30.8C20.2533 31.2267 21.0133 31.7067 21.6 32.24C22.1867 32.7733 22.48 33.3733 22.48 34.04C22.48 34.9467 22.1733 35.8133 21.56 36.64C20.9467 37.4667 20.1467 38.24 19.16 38.96C18.1733 39.6533 17.0933 40.28 15.92 40.84C14.7467 41.4 13.5867 41.88 12.44 42.28C11.32 42.7067 10.3067 43.0267 9.4 43.24C8.49333 43.4533 7.81333 43.56 7.36 43.56ZM43.9944 43.8C43.381 43.8 42.821 43.5467 42.3144 43.04C41.8344 42.56 41.5944 41.7467 41.5944 40.6C41.5944 39.7467 41.661 38.56 41.7944 37.04C41.9544 35.4933 42.2477 33.5067 42.6744 31.08C41.741 33 40.7677 34.7067 39.7544 36.2C38.741 37.6933 37.741 38.8667 36.7544 39.72C35.7944 40.5467 34.8744 40.96 33.9944 40.96C32.581 40.96 31.461 40.5333 30.6344 39.68C29.8077 38.8 29.3944 37.16 29.3944 34.76C29.3944 33.6133 29.4877 32.32 29.6744 30.88C29.8877 29.44 30.1544 28 30.4744 26.56C30.7944 25.12 31.1144 23.84 31.4344 22.72C31.781 21.5733 32.0877 20.72 32.3544 20.16C32.5677 19.68 32.8344 19.3067 33.1544 19.04C33.501 18.7733 33.941 18.64 34.4744 18.64C35.3277 18.64 35.981 18.92 36.4344 19.48C36.8877 20.04 37.1144 20.6133 37.1144 21.2C37.1144 21.6533 37.0077 22.3067 36.7944 23.16C36.6077 24.0133 36.3677 24.96 36.0744 26C35.8077 27.04 35.5277 28.1067 35.2344 29.2C34.941 30.2933 34.6877 31.32 34.4744 32.28C34.2877 33.24 34.1944 34.0533 34.1944 34.72C34.1944 35.5467 34.5144 35.96 35.1544 35.96C35.5277 35.96 36.0077 35.6 36.5944 34.88C37.2077 34.16 37.8477 33.2 38.5144 32C39.2077 30.7733 39.901 29.44 40.5944 28C41.3144 26.5333 41.9677 25.0533 42.5544 23.56C43.1677 22.04 43.6877 20.64 44.1144 19.36C44.381 18.56 44.741 18 45.1944 17.68C45.6477 17.36 46.1677 17.2 46.7544 17.2C47.661 17.2 48.3544 17.4533 48.8344 17.96C49.341 18.4667 49.5944 19.1867 49.5944 20.12C49.5944 20.5467 49.5277 21.2667 49.3944 22.28C49.261 23.2933 49.0877 24.48 48.8744 25.84C48.6877 27.2 48.461 28.64 48.1944 30.16C47.9277 31.68 47.661 33.1733 47.3944 34.64C47.1544 36.1067 46.9144 37.4533 46.6744 38.68C46.4344 39.88 46.2344 40.84 46.0744 41.56C45.8077 42.6267 45.4877 43.2667 45.1144 43.48C44.741 43.6933 44.3677 43.8 43.9944 43.8ZM58.9497 43.24C57.3497 43.24 56.243 42.92 55.6297 42.28C55.043 41.6667 54.7497 40.8133 54.7497 39.72C54.7497 35.08 55.6164 30.24 57.3497 25.2C59.1097 20.1333 61.5764 15.0533 64.7497 9.96C65.283 9.08 65.723 8.56 66.0697 8.4C66.4164 8.24 66.803 8.16 67.2297 8.16C67.843 8.16 68.3764 8.37333 68.8297 8.8C69.3097 9.22667 69.5497 9.78667 69.5497 10.48C69.5497 10.6933 69.323 11.28 68.8697 12.24C68.4164 13.2 67.8164 14.4267 67.0697 15.92C66.3497 17.4133 65.563 19.1067 64.7097 21C63.8564 22.8667 63.0164 24.84 62.1897 26.92C61.3897 29 60.6964 31.0933 60.1097 33.2C61.0164 32.0533 62.043 30.88 63.1897 29.68C64.363 28.4533 65.5764 27.3333 66.8297 26.32C68.083 25.28 69.2964 24.4533 70.4697 23.84C71.643 23.2 72.6964 22.88 73.6297 22.88C74.5097 22.88 75.323 23.0933 76.0697 23.52C76.843 23.9467 77.4697 24.6133 77.9497 25.52C78.4297 26.4267 78.6697 27.6 78.6697 29.04C78.6697 30.6133 78.2164 32.2267 77.3097 33.88C76.4297 35.5333 75.1364 37.0667 73.4297 38.48C71.7497 39.8933 69.683 41.04 67.2297 41.92C64.803 42.8 62.043 43.24 58.9497 43.24ZM60.6297 38.68C62.683 38.52 64.5364 38.08 66.1897 37.36C67.8697 36.64 69.3097 35.7467 70.5097 34.68C71.7097 33.6133 72.6297 32.4933 73.2697 31.32C73.9097 30.12 74.2297 28.9867 74.2297 27.92C74.2297 27.68 74.163 27.56 74.0297 27.56C73.4697 27.56 72.763 27.8133 71.9097 28.32C71.0564 28.8 70.123 29.4533 69.1097 30.28C68.0964 31.1067 67.0697 32.0133 66.0297 33C64.9897 33.9867 64.003 34.9733 63.0697 35.96C62.1364 36.9467 61.323 37.8533 60.6297 38.68ZM81.8413 26.36C81.3346 26.36 80.9479 26.2267 80.6813 25.96C80.4146 25.6933 80.2813 25.2267 80.2813 24.56C80.2813 24.16 80.4013 23.7467 80.6413 23.32C80.9079 22.8933 81.2013 22.3867 81.5213 21.8C81.8413 21.2133 82.1213 20.5067 82.3613 19.68C82.6279 18.8533 82.7613 17.8667 82.7613 16.72C82.7613 16.3467 82.7346 15.9733 82.6813 15.6C82.6546 15.2 82.6413 14.8267 82.6413 14.48C82.6413 11.7067 83.5213 10.32 85.2813 10.32C86.0813 10.32 86.7346 10.6 87.2413 11.16C87.7479 11.72 88.0013 12.84 88.0013 14.52C88.0013 16.3867 87.7746 18.0533 87.3213 19.52C86.8679 20.9867 86.3079 22.2267 85.6413 23.24C84.9746 24.2533 84.2946 25.0267 83.6013 25.56C82.9079 26.0933 82.3213 26.36 81.8413 26.36ZM93.8156 44.04C92.669 44.04 91.8556 43.88 91.3756 43.56C90.9223 43.24 90.6956 42.7733 90.6956 42.16C90.6956 41.6267 90.8823 41.1733 91.2556 40.8C91.629 40.4 92.4556 40 93.7356 39.6C95.229 39.1467 96.6423 38.6267 97.9756 38.04C99.3356 37.4267 100.442 36.76 101.296 36.04C102.176 35.32 102.616 34.56 102.616 33.76C102.616 33.2267 102.429 32.84 102.056 32.6C101.709 32.36 101.296 32.24 100.816 32.24C100.416 32.24 99.829 32.3067 99.0556 32.44C98.309 32.5467 97.4823 32.6933 96.5756 32.88C95.669 33.04 94.789 33.1867 93.9356 33.32C93.109 33.4267 92.4023 33.48 91.8156 33.48C90.429 33.48 89.4023 33.1733 88.7356 32.56C88.069 31.92 87.7356 31.1067 87.7356 30.12C87.7356 29.5867 88.0156 28.8533 88.5756 27.92C89.1356 26.9867 89.8823 25.96 90.8156 24.84C91.749 23.72 92.789 22.6 93.9356 21.48C95.0823 20.36 96.2423 19.3333 97.4156 18.4C98.6156 17.44 99.749 16.68 100.816 16.12C101.882 15.5333 102.789 15.24 103.536 15.24C104.389 15.24 105.069 15.5067 105.576 16.04C106.109 16.5733 106.376 17.2933 106.376 18.2C106.376 18.6267 106.336 19.0933 106.256 19.6C106.176 20.08 105.976 20.52 105.656 20.92C105.336 21.2933 104.842 21.56 104.176 21.72C103.509 21.88 102.602 21.8533 101.456 21.64C100.549 22.3067 99.6023 23.04 98.6156 23.84C97.6556 24.6133 96.749 25.4267 95.8956 26.28C95.0423 27.1067 94.3356 27.92 93.7756 28.72C94.7623 28.4 95.8823 28.1467 97.1356 27.96C98.389 27.7467 99.6556 27.64 100.936 27.64C102.482 27.64 103.736 27.92 104.696 28.48C105.682 29.0133 106.402 29.7333 106.856 30.64C107.336 31.5467 107.576 32.5467 107.576 33.64C107.576 34.8667 107.176 36.0933 106.376 37.32C105.576 38.5467 104.509 39.6667 103.176 40.68C101.842 41.6933 100.362 42.5067 98.7356 43.12C97.109 43.7333 95.469 44.04 93.8156 44.04Z" fill="#DB4B4B"/>
<path d="M7.70534 75.504C7.44934 75.504 7.24134 75.416 7.08134 75.24C6.92134 75.064 6.84134 74.752 6.84134 74.304C6.84134 73.968 6.94534 73.424 7.15334 72.672C7.37734 71.904 7.67334 71.008 8.04134 69.984C8.42534 68.96 8.84934 67.88 9.31334 66.744C9.79334 65.592 10.2893 64.448 10.8013 63.312C11.3133 62.176 11.8173 61.128 12.3133 60.168C12.8093 59.192 13.2653 58.368 13.6813 57.696C14.0973 57.024 14.4493 56.584 14.7373 56.376C15.0733 56.136 15.3853 56.016 15.6733 56.016C15.8333 56.016 15.9933 56.032 16.1533 56.064C16.3133 56.096 16.4493 56.152 16.5613 56.232C16.8493 56.408 17.0973 56.8 17.3053 57.408C17.5293 58 17.7213 58.728 17.8813 59.592C18.0413 60.44 18.1693 61.352 18.2653 62.328C18.3773 63.288 18.4733 64.24 18.5533 65.184C19.0333 65.12 19.4333 65.072 19.7533 65.04C20.0733 65.008 20.3053 64.992 20.4493 64.992C20.9933 64.992 21.3373 65.064 21.4813 65.208C21.6253 65.352 21.7053 65.52 21.7213 65.712C21.7533 66 21.6733 66.256 21.4813 66.48C21.2893 66.704 21.0173 66.872 20.6653 66.984C20.5533 67.016 20.3133 67.072 19.9453 67.152C19.5933 67.216 19.1693 67.296 18.6733 67.392C18.6893 67.872 18.6973 68.32 18.6973 68.736C18.7133 69.136 18.7213 69.48 18.7213 69.768C18.7213 71.224 18.6333 72.32 18.4573 73.056C18.2813 73.776 18.0653 74.264 17.8093 74.52C17.5533 74.776 17.3053 74.904 17.0653 74.904C16.7773 74.904 16.5773 74.824 16.4653 74.664C16.3533 74.488 16.2973 74.24 16.2973 73.92V72.216C16.2973 71.624 16.2893 70.952 16.2733 70.2C16.2733 69.432 16.2653 68.624 16.2493 67.776C15.3053 67.936 14.3453 68.088 13.3693 68.232C12.4093 68.376 11.5773 68.504 10.8733 68.616C10.5213 69.528 10.2173 70.352 9.96134 71.088C9.70534 71.808 9.52934 72.36 9.43334 72.744C9.19334 73.544 8.97734 74.144 8.78534 74.544C8.59334 74.928 8.40934 75.184 8.23334 75.312C8.07334 75.44 7.89734 75.504 7.70534 75.504ZM11.6893 66.48C12.5213 66.288 13.3133 66.112 14.0653 65.952C14.8333 65.792 15.5373 65.656 16.1773 65.544C16.1293 64.104 16.0413 62.728 15.9133 61.416C15.8013 60.088 15.6333 59.04 15.4093 58.272C15.1053 58.8 14.7453 59.504 14.3293 60.384C13.9133 61.264 13.4733 62.24 13.0093 63.312C12.5613 64.368 12.1213 65.424 11.6893 66.48ZM27.2205 74.448C26.7565 74.448 26.3405 74.184 25.9725 73.656C25.6045 73.128 25.4205 72.448 25.4205 71.616C25.4205 70.704 25.5405 69.728 25.7805 68.688C26.0365 67.648 26.3485 66.592 26.7165 65.52C27.0845 64.432 27.4445 63.384 27.7965 62.376C27.8765 62.168 27.9885 62.016 28.1325 61.92C28.2925 61.808 28.5325 61.752 28.8525 61.752C29.4285 61.752 29.7165 62.032 29.7165 62.592C29.7165 62.72 29.6525 63.008 29.5245 63.456C29.3965 63.904 29.2285 64.456 29.0205 65.112C28.8285 65.768 28.6285 66.48 28.4205 67.248C28.2125 68 28.0285 68.76 27.8685 69.528C27.7085 70.296 27.5965 71.008 27.5325 71.664C27.7885 71.392 28.0765 70.976 28.3965 70.416C28.7325 69.856 29.0925 69.224 29.4765 68.52C29.8605 67.8 30.2605 67.08 30.6765 66.36C31.0925 65.624 31.5085 64.952 31.9245 64.344C32.3565 63.72 32.7725 63.224 33.1725 62.856C33.5885 62.472 33.9725 62.28 34.3245 62.28C34.8365 62.28 35.2685 62.44 35.6205 62.76C35.9885 63.064 36.2685 63.608 36.4605 64.392C36.6685 65.16 36.7725 66.248 36.7725 67.656C36.7725 68.408 36.8445 69.112 36.9885 69.768C37.1485 70.424 37.3965 70.952 37.7325 71.352C38.0845 71.736 38.5325 71.928 39.0765 71.928C39.8925 71.928 40.6205 71.784 41.2605 71.496C41.9005 71.192 42.4525 70.856 42.9165 70.488C43.3965 70.104 43.7965 69.768 44.1165 69.48C44.4365 69.176 44.6845 69.024 44.8605 69.024C45.2285 69.024 45.4125 69.216 45.4125 69.6C45.4125 69.76 45.2925 70.016 45.0525 70.368C44.8285 70.704 44.5085 71.088 44.0925 71.52C43.6925 71.936 43.2285 72.344 42.7005 72.744C42.1885 73.128 41.6365 73.448 41.0445 73.704C40.4685 73.96 39.8845 74.088 39.2925 74.088C38.1885 74.088 37.2845 73.872 36.5805 73.44C35.8925 73.008 35.3805 72.296 35.0445 71.304C34.7245 70.312 34.5645 68.984 34.5645 67.32C34.5645 66.408 34.5085 65.744 34.3965 65.328C34.3005 64.896 34.1165 64.608 33.8445 64.464C33.6525 64.8 33.4045 65.28 33.1005 65.904C32.7965 66.512 32.4445 67.192 32.0445 67.944C31.6605 68.696 31.2525 69.456 30.8205 70.224C30.4045 70.976 29.9805 71.672 29.5485 72.312C29.1165 72.952 28.7005 73.472 28.3005 73.872C27.9005 74.256 27.5405 74.448 27.2205 74.448ZM44.6299 75.12C44.3259 75.12 44.0539 75.008 43.8139 74.784C43.5739 74.544 43.4539 74.176 43.4539 73.68C43.4539 73.328 43.5019 72.84 43.5979 72.216C43.6939 71.576 43.8219 70.88 43.9819 70.128C44.1419 69.376 44.3099 68.632 44.4859 67.896C44.6779 67.144 44.8699 66.472 45.0619 65.88C45.2539 65.288 45.4219 64.848 45.5659 64.56C45.6939 64.336 45.8139 64.192 45.9259 64.128C46.0539 64.064 46.1739 64.032 46.2859 64.032C46.5099 64.032 46.7019 64.104 46.8619 64.248C47.0379 64.392 47.1259 64.672 47.1259 65.088C47.1259 65.328 47.0779 65.728 46.9819 66.288C46.9019 66.832 46.7899 67.472 46.6459 68.208C46.5179 68.928 46.3739 69.672 46.2139 70.44C46.0699 71.192 45.9259 71.912 45.7819 72.6C45.6379 73.288 45.5259 73.864 45.4459 74.328C45.3819 74.584 45.2699 74.784 45.1099 74.928C44.9659 75.056 44.8059 75.12 44.6299 75.12ZM46.9819 61.848C46.6139 61.848 46.2619 61.736 45.9259 61.512C45.6059 61.288 45.4459 60.928 45.4459 60.432C45.4459 60.016 45.5419 59.68 45.7339 59.424C45.9419 59.168 46.1819 58.984 46.4539 58.872C46.7419 58.744 46.9899 58.68 47.1979 58.68C47.4059 58.68 47.6379 58.728 47.8939 58.824C48.1659 58.904 48.3979 59.064 48.5899 59.304C48.7819 59.528 48.8779 59.864 48.8779 60.312C48.8779 60.616 48.7739 60.888 48.5659 61.128C48.3579 61.352 48.1019 61.528 47.7979 61.656C47.5099 61.784 47.2379 61.848 46.9819 61.848ZM69.039 74.28C69.023 74.536 68.919 74.744 68.727 74.904C68.535 75.064 68.311 75.144 68.055 75.144C67.767 75.144 67.527 75.048 67.335 74.856C67.143 74.664 67.047 74.368 67.047 73.968C67.047 72.928 67.095 71.8 67.191 70.584C67.287 69.352 67.407 68.136 67.551 66.936C67.695 65.72 67.839 64.6 67.983 63.576C67.455 64.328 66.879 65.16 66.255 66.072C65.647 66.984 65.023 67.888 64.383 68.784C63.743 69.68 63.119 70.504 62.511 71.256C61.903 71.992 61.351 72.592 60.855 73.056C60.359 73.504 59.951 73.728 59.631 73.728C59.039 73.728 58.527 73.496 58.095 73.032C57.663 72.552 57.447 71.952 57.447 71.232C57.447 70.944 57.479 70.552 57.543 70.056C57.607 69.544 57.679 69.008 57.759 68.448C57.839 67.888 57.911 67.368 57.975 66.888C58.039 66.392 58.071 66.024 58.071 65.784C58.071 65.56 58.047 65.368 57.999 65.208C57.967 65.032 57.887 64.944 57.759 64.944C57.567 64.944 57.303 65.16 56.967 65.592C56.631 66.008 56.255 66.544 55.839 67.2C55.439 67.856 55.023 68.552 54.591 69.288C54.175 70.024 53.783 70.72 53.415 71.376C53.047 72.016 52.735 72.52 52.479 72.888C52.271 73.24 52.079 73.496 51.903 73.656C51.727 73.816 51.511 73.896 51.255 73.896C50.951 73.896 50.671 73.736 50.415 73.416C50.175 73.096 50.055 72.704 50.055 72.24C50.055 71.968 50.103 71.544 50.199 70.968C50.295 70.376 50.415 69.728 50.559 69.024C50.719 68.32 50.871 67.632 51.015 66.96C51.175 66.272 51.311 65.688 51.423 65.208C51.551 64.664 51.711 64.296 51.903 64.104C52.095 63.912 52.303 63.816 52.527 63.816C52.831 63.816 53.071 63.928 53.247 64.152C53.439 64.36 53.535 64.688 53.535 65.136C53.535 65.216 53.487 65.432 53.391 65.784C53.295 66.12 53.175 66.536 53.031 67.032C52.903 67.512 52.759 68.016 52.599 68.544C52.455 69.072 52.335 69.56 52.239 70.008C52.591 69.416 52.959 68.776 53.343 68.088C53.743 67.4 54.143 66.72 54.543 66.048C54.943 65.36 55.343 64.736 55.743 64.176C56.143 63.6 56.535 63.144 56.919 62.808C57.303 62.472 57.671 62.304 58.023 62.304C58.439 62.304 58.823 62.432 59.175 62.688C59.543 62.944 59.839 63.288 60.063 63.72C60.287 64.152 60.399 64.632 60.399 65.16C60.399 65.528 60.335 66.048 60.207 66.72C60.079 67.376 59.943 68.088 59.799 68.856C59.671 69.624 59.591 70.352 59.559 71.04C59.559 71.2 59.607 71.28 59.703 71.28C59.783 71.28 59.879 71.224 59.991 71.112C60.455 70.6 60.967 69.984 61.527 69.264C62.087 68.528 62.655 67.752 63.231 66.936C63.823 66.12 64.407 65.32 64.983 64.536C65.559 63.736 66.095 63.016 66.591 62.376C67.103 61.72 67.551 61.2 67.935 60.816C68.335 60.432 68.647 60.24 68.871 60.24C69.351 60.24 69.719 60.376 69.975 60.648C70.231 60.92 70.359 61.376 70.359 62.016C70.359 62.528 70.319 63.192 70.239 64.008C70.175 64.824 70.087 65.712 69.975 66.672C69.879 67.632 69.767 68.6 69.639 69.576C69.527 70.536 69.415 71.432 69.303 72.264C69.191 73.08 69.103 73.752 69.039 74.28ZM83.4553 64.656C83.4553 65.168 83.2953 65.672 82.9753 66.168C82.6553 66.648 82.2313 67.112 81.7033 67.56C81.1753 67.992 80.5913 68.4 79.9513 68.784C79.3113 69.168 78.6713 69.504 78.0313 69.792C77.3913 70.08 76.8073 70.312 76.2793 70.488C76.1513 71.112 76.0873 71.664 76.0873 72.144C76.0873 72.448 76.1593 72.664 76.3033 72.792C76.4473 72.92 76.6713 72.984 76.9753 72.984C77.6473 72.984 78.3593 72.864 79.1113 72.624C79.8633 72.384 80.6313 72.072 81.4153 71.688C82.1993 71.304 82.9513 70.896 83.6713 70.464C84.3913 70.032 85.0473 69.624 85.6393 69.24C86.2473 68.856 86.7513 68.544 87.1513 68.304C87.5513 68.064 87.8153 67.944 87.9433 67.944C88.1353 67.944 88.2793 68.008 88.3753 68.136C88.4873 68.248 88.5433 68.384 88.5433 68.544C88.5433 68.672 88.3433 68.92 87.9433 69.288C87.5593 69.656 87.0393 70.088 86.3833 70.584C85.7273 71.064 84.9913 71.56 84.1753 72.072C83.3593 72.584 82.5113 73.064 81.6313 73.512C80.7673 73.96 79.9273 74.32 79.1113 74.592C78.3113 74.864 77.5913 75 76.9513 75C76.1193 75 75.4713 74.688 75.0073 74.064C74.5433 73.44 74.3113 72.472 74.3113 71.16C74.3113 70.28 74.4233 69.392 74.6473 68.496C74.8873 67.6 75.2073 66.744 75.6073 65.928C76.0233 65.096 76.4793 64.36 76.9753 63.72C77.4873 63.064 78.0233 62.552 78.5833 62.184C79.1433 61.8 79.6873 61.608 80.2153 61.608C81.2233 61.608 82.0153 61.888 82.5913 62.448C83.1673 63.008 83.4553 63.744 83.4553 64.656ZM76.7833 68.64C77.2793 68.336 77.7913 68.016 78.3193 67.68C78.8473 67.344 79.3353 67 79.7833 66.648C80.2313 66.296 80.5913 65.928 80.8633 65.544C81.1513 65.144 81.2953 64.736 81.2953 64.32C81.2953 63.728 80.9753 63.432 80.3353 63.432C79.9353 63.432 79.5113 63.688 79.0633 64.2C78.6313 64.696 78.2153 65.344 77.8153 66.144C77.4153 66.944 77.0713 67.776 76.7833 68.64ZM88.3345 59.616C87.6785 59.616 87.2145 59.584 86.9425 59.52C86.6705 59.44 86.5025 59.336 86.4385 59.208C86.3905 59.08 86.3665 58.952 86.3665 58.824C86.3665 58.648 86.4545 58.488 86.6305 58.344C86.8225 58.184 87.2065 58.056 87.7825 57.96C88.5185 57.8 89.3825 57.64 90.3745 57.48C91.3825 57.304 92.4545 57.144 93.5905 57C94.7265 56.84 95.8625 56.696 96.9985 56.568C98.1505 56.44 99.2465 56.344 100.286 56.28C101.342 56.2 102.278 56.16 103.094 56.16C104.182 56.16 104.918 56.256 105.302 56.448C105.702 56.64 105.902 56.848 105.902 57.072C105.902 57.28 105.79 57.472 105.566 57.648C105.358 57.824 104.998 57.912 104.486 57.912C104.278 57.912 103.798 57.96 103.046 58.056C102.294 58.136 101.374 58.248 100.286 58.392C99.2145 58.52 98.0785 58.664 96.8785 58.824C96.7985 59.368 96.6785 60.088 96.5185 60.984C96.3585 61.864 96.1745 62.832 95.9665 63.888C95.7745 64.944 95.5745 66.008 95.3665 67.08C95.1745 68.136 94.9905 69.12 94.8145 70.032C94.6545 70.944 94.5185 71.696 94.4065 72.288C94.2945 72.88 94.2305 73.232 94.2145 73.344C94.1505 73.84 94.0065 74.216 93.7825 74.472C93.5745 74.712 93.3425 74.832 93.0865 74.832C92.7825 74.832 92.5265 74.704 92.3185 74.448C92.1265 74.176 92.0305 73.704 92.0305 73.032C92.0305 72.808 92.0785 72.376 92.1745 71.736C92.2705 71.08 92.3985 70.304 92.5585 69.408C92.7185 68.512 92.8945 67.56 93.0865 66.552C93.2785 65.544 93.4705 64.56 93.6625 63.6C93.8545 62.624 94.0305 61.744 94.1905 60.96C94.3505 60.16 94.4705 59.536 94.5505 59.088C93.2865 59.232 92.0945 59.36 90.9745 59.472C89.8705 59.568 88.9905 59.616 88.3345 59.616ZM103.434 75.624C102.826 75.624 102.322 75.344 101.922 74.784C101.538 74.208 101.346 73.464 101.346 72.552C101.346 71.704 101.554 70.864 101.97 70.032C102.402 69.2 102.97 68.4 103.674 67.632C104.378 66.864 105.146 66.16 105.978 65.52C106.81 64.864 107.642 64.296 108.474 63.816C109.322 63.336 110.098 62.96 110.802 62.688C111.506 62.416 112.066 62.28 112.482 62.28C112.706 62.28 112.89 62.328 113.034 62.424C113.178 62.504 113.25 62.656 113.25 62.88C113.25 63.024 113.194 63.16 113.082 63.288C113.098 63.288 113.114 63.288 113.13 63.288C113.482 63.288 113.658 63.496 113.658 63.912C113.658 64.056 113.602 64.352 113.49 64.8C113.378 65.232 113.25 65.776 113.106 66.432C112.962 67.088 112.834 67.816 112.722 68.616C112.61 69.4 112.554 70.2 112.554 71.016C112.554 71.704 112.818 72.048 113.346 72.048C113.938 72.048 114.538 71.912 115.146 71.64C115.754 71.368 116.346 71.04 116.922 70.656C117.498 70.256 118.026 69.864 118.506 69.48C118.986 69.08 119.394 68.744 119.73 68.472C120.066 68.2 120.306 68.064 120.45 68.064C120.578 68.064 120.69 68.104 120.786 68.184C120.882 68.264 120.93 68.392 120.93 68.568C120.93 68.728 120.77 69.016 120.45 69.432C120.13 69.848 119.706 70.32 119.178 70.848C118.65 71.376 118.058 71.888 117.402 72.384C116.746 72.88 116.074 73.288 115.386 73.608C114.698 73.928 114.042 74.088 113.418 74.088C112.938 74.088 112.498 73.944 112.098 73.656C111.714 73.352 111.402 72.84 111.162 72.12C110.938 71.4 110.826 70.408 110.826 69.144V68.544C110.042 69.84 109.218 71.024 108.354 72.096C107.506 73.168 106.658 74.024 105.81 74.664C104.978 75.304 104.186 75.624 103.434 75.624ZM112.026 64.008C111.946 64.04 111.834 64.088 111.69 64.152C110.954 64.488 110.186 64.904 109.386 65.4C108.602 65.896 107.834 66.448 107.082 67.056C106.346 67.664 105.682 68.296 105.09 68.952C104.498 69.608 104.026 70.272 103.674 70.944C103.322 71.616 103.146 72.272 103.146 72.912C103.146 73.12 103.186 73.28 103.266 73.392C103.362 73.504 103.522 73.56 103.746 73.56C104.066 73.56 104.482 73.36 104.994 72.96C105.506 72.544 106.066 72 106.674 71.328C107.298 70.656 107.922 69.912 108.546 69.096C109.17 68.28 109.762 67.456 110.322 66.624C110.898 65.792 111.394 65.024 111.81 64.32C111.874 64.208 111.946 64.104 112.026 64.008ZM131.116 76.272C130.076 76.272 129.116 76.024 128.236 75.528C127.372 75.032 126.588 74.392 125.884 73.608C125.196 72.824 124.58 71.984 124.036 71.088C123.508 70.176 123.052 69.32 122.668 68.52C122.396 69.816 122.18 70.864 122.02 71.664C121.876 72.464 121.756 73.072 121.66 73.488C121.58 73.904 121.5 74.184 121.42 74.328C121.34 74.472 121.236 74.544 121.108 74.544C120.756 74.544 120.42 74.352 120.1 73.968C119.78 73.584 119.62 73.088 119.62 72.48C119.62 71.84 119.732 70.992 119.956 69.936C120.18 68.864 120.476 67.68 120.844 66.384C121.228 65.072 121.668 63.72 122.164 62.328C122.66 60.92 123.172 59.552 123.7 58.224C124.244 56.88 124.788 55.656 125.332 54.552C125.604 54.008 125.836 53.656 126.028 53.496C126.236 53.336 126.484 53.256 126.772 53.256C127.236 53.256 127.468 53.472 127.468 53.904C127.468 54.064 127.42 54.24 127.324 54.432C127.244 54.624 127.156 54.84 127.06 55.08C126.772 55.784 126.452 56.576 126.1 57.456C125.764 58.336 125.42 59.256 125.068 60.216C124.732 61.176 124.412 62.128 124.108 63.072C123.804 64.016 123.54 64.888 123.316 65.688C124.004 65.208 124.812 64.728 125.74 64.248C126.668 63.768 127.628 63.336 128.62 62.952C129.612 62.552 130.548 62.232 131.428 61.992C132.308 61.752 133.036 61.632 133.612 61.632C133.916 61.632 134.148 61.728 134.308 61.92C134.484 62.096 134.572 62.296 134.572 62.52C134.572 62.696 134.516 62.872 134.404 63.048C134.308 63.208 134.1 63.352 133.78 63.48C132.724 63.848 131.676 64.224 130.636 64.608C129.596 64.976 128.508 65.376 127.372 65.808C126.252 66.224 125.028 66.72 123.7 67.296C124.116 68 124.604 68.76 125.164 69.576C125.724 70.376 126.324 71.136 126.964 71.856C127.604 72.56 128.26 73.144 128.932 73.608C129.604 74.056 130.276 74.28 130.948 74.28C131.828 74.28 132.676 74.096 133.492 73.728C134.308 73.36 135.06 72.912 135.748 72.384C136.452 71.856 137.068 71.344 137.596 70.848C138.124 70.336 138.54 69.936 138.844 69.648C139.004 69.504 139.148 69.408 139.276 69.36C139.42 69.296 139.548 69.264 139.66 69.264C139.884 69.264 140.036 69.384 140.116 69.624C140.212 69.848 140.132 70.096 139.876 70.368C139.684 70.592 139.388 70.936 138.988 71.4C138.588 71.864 138.1 72.376 137.524 72.936C136.964 73.48 136.34 74.008 135.652 74.52C134.98 75.032 134.252 75.448 133.468 75.768C132.7 76.104 131.916 76.272 131.116 76.272ZM148.213 64.656C148.213 65.168 148.053 65.672 147.733 66.168C147.413 66.648 146.989 67.112 146.461 67.56C145.933 67.992 145.349 68.4 144.709 68.784C144.069 69.168 143.429 69.504 142.789 69.792C142.149 70.08 141.565 70.312 141.037 70.488C140.909 71.112 140.845 71.664 140.845 72.144C140.845 72.448 140.917 72.664 141.061 72.792C141.205 72.92 141.429 72.984 141.733 72.984C142.405 72.984 143.117 72.864 143.869 72.624C144.621 72.384 145.389 72.072 146.173 71.688C146.957 71.304 147.709 70.896 148.429 70.464C149.149 70.032 149.805 69.624 150.397 69.24C151.005 68.856 151.509 68.544 151.909 68.304C152.309 68.064 152.573 67.944 152.701 67.944C152.893 67.944 153.037 68.008 153.133 68.136C153.245 68.248 153.301 68.384 153.301 68.544C153.301 68.672 153.101 68.92 152.701 69.288C152.317 69.656 151.797 70.088 151.141 70.584C150.485 71.064 149.749 71.56 148.933 72.072C148.117 72.584 147.269 73.064 146.389 73.512C145.525 73.96 144.685 74.32 143.869 74.592C143.069 74.864 142.349 75 141.709 75C140.877 75 140.229 74.688 139.765 74.064C139.301 73.44 139.069 72.472 139.069 71.16C139.069 70.28 139.181 69.392 139.405 68.496C139.645 67.6 139.965 66.744 140.365 65.928C140.781 65.096 141.237 64.36 141.733 63.72C142.245 63.064 142.781 62.552 143.341 62.184C143.901 61.8 144.445 61.608 144.973 61.608C145.981 61.608 146.773 61.888 147.349 62.448C147.925 63.008 148.213 63.744 148.213 64.656ZM141.541 68.64C142.037 68.336 142.549 68.016 143.077 67.68C143.605 67.344 144.093 67 144.541 66.648C144.989 66.296 145.349 65.928 145.621 65.544C145.909 65.144 146.053 64.736 146.053 64.32C146.053 63.728 145.733 63.432 145.093 63.432C144.693 63.432 144.269 63.688 143.821 64.2C143.389 64.696 142.973 65.344 142.573 66.144C142.173 66.944 141.829 67.776 141.541 68.64Z" fill="white"/>
</svg>
